<?xml version="1.0" encoding="utf-8"?>
<svg version="1.1" id="Layer_1" xmlns="http://www.w3.org/2000/svg" xmlns:xlink="http://www.w3.org/1999/xlink" x="0px" y="0px"
	 viewBox="0 0 582 582" style="enable-background:new 0 0 582 582;" xml:space="preserve">
<path d="M296,152c-79.5,0-144,64.5-144,144s64.5,144,144,144c13.3,0,24,10.7,24,24c0,13.3-10.7,24-24,24c-106.1,0-192-86-192-192
	s85.9-192,192-192s192,85.9,192,192v24c0,39.8-32.2,72-72,72c-22,0-41.7-9.9-54.9-25.4C344,382.3,321.1,392,296,392
	c-53,0-96-43-96-96s43-96,96-96c20.9,0,40.3,6.7,56,18.1c4.3-3.8,9.8-6.1,16-6.1c13.3,0,24,10.7,24,24v60v24c0,13.3,10.7,24,24,24
	s24-10.7,24-24v-24C440,216.5,375.5,152,296,152z M344,296c0-26.5-21.5-48-48-48s-48,21.5-48,48c0,26.5,21.5,48,48,48
	S344,322.5,344,296z"/>
</svg>
