<svg
            className="instagram"
            alt="instagram"
            version="1.1"
            xmlns="http://www.w3.org/2000/svg"
            xmlnsXlink="http://www.w3.org/1999/xlink"
            x="0px"
            y="0px"
            viewBox="0 0 500 500"

            xmlSpace="preserve"
          >

            <path
              d="M250,162.8c-48.3,0-87.2,38.9-87.2,87.2s38.9,87.2,87.2,87.2s87.2-38.9,87.2-87.2S298.3,162.8,250,162.8z
	 M250,306.7c-31.2,0-56.7-25.4-56.7-56.7s25.4-56.7,56.7-56.7s56.7,25.4,56.7,56.7S281.2,306.7,250,306.7L250,306.7z M361.1,159.3
	c0,11.3-9.1,20.3-20.3,20.3c-11.3,0-20.3-9.1-20.3-20.3c0-11.2,9.1-20.3,20.3-20.3C352,138.9,361.1,148,361.1,159.3z M418.8,179.9
	c-1.3-27.2-7.5-51.4-27.5-71.2c-19.9-19.9-44-26.1-71.2-27.5c-28.1-1.6-112.2-1.6-140.3,0c-27.2,1.3-51.3,7.5-71.2,27.4
	s-26.1,44-27.5,71.2c-1.6,28.1-1.6,112.2,0,140.3c1.3,27.2,7.5,51.4,27.5,71.2s44,26.1,71.2,27.5c28.1,1.6,112.2,1.6,140.3,0
	c27.2-1.3,51.4-7.5,71.2-27.5c19.9-19.9,26.1-44,27.5-71.2C420.4,292,420.4,208,418.8,179.9L418.8,179.9z M382.6,350.2
	c-5.9,14.9-17.4,26.3-32.3,32.3c-22.4,8.9-75.5,6.8-100.2,6.8c-24.7,0-77.9,2-100.2-6.8c-14.9-5.9-26.3-17.4-32.3-32.3
	c-8.9-22.4-6.8-75.5-6.8-100.2s-2-77.9,6.8-100.2c5.9-14.9,17.4-26.3,32.3-32.3c22.4-8.9,75.5-6.8,100.2-6.8
	c24.7,0,77.9-2,100.2,6.8c14.9,5.9,26.3,17.4,32.3,32.3c8.9,22.4,6.8,75.5,6.8,100.2S391.5,327.9,382.6,350.2z"
            />
          </svg>