 <svg
            alt="linkedin"
            className="linkedin"
            xmlns="http://www.w3.org/2000/svg"
            viewBox="0 0 500 500"
          >


            <path d="m173.8,388h-57.2v-184.3h57.2v184.3Zm-28.7-209.4c-18.3,0-33.1-15.1-33.1-33.4s14.9-33.1,33.1-33.1,33.1,14.9,33.1,33.1c0,18.3-14.7,33.4-33.1,33.4Zm242.8,209.4h-57.1v-89.7c0-21.3-.4-48.8-29.8-48.8s-34.3,23.2-34.3,47.2v91.3h-57.1v-184.3h54.9v25.2h.8c7.6-14.4,26.3-29.8,54.1-29.8,57.9,0,68.6,38.2,68.6,87.7l-.1,101.2h0Z" />
          </svg>