<?xml version="1.0" encoding="utf-8"?>
<svg version="1.1" id="Layer_1" xmlns="http://www.w3.org/2000/svg" xmlns:xlink="http://www.w3.org/1999/xlink" x="0px" y="0px"
	 viewBox="0 0 448 512" style="enable-background:new 0 0 448 512;" xml:space="preserve">
<path d="M295.9,247.6c2.1-0.3,4.2-0.3,6.3,0c1.1-2.6,1.3-7,0.3-11.9c-1.5-7.2-3.5-11.5-7.8-10.8c-4.3,0.7-4.4,5.9-2.9,13.1
	C292.8,242,294.2,245.4,295.9,247.6L295.9,247.6z M259.8,253.3c3,1.3,4.9,2.2,5.6,1.4c1.3-1.3-2.4-6.3-8.1-8.8
	c-6.8-2.8-14.7-1.9-20.6,2.4c-2,1.5-3.9,3.5-3.7,4.7c0.6,2.5,6.7-1.8,15.2-2.4C252.9,250.5,256.8,252,259.8,253.3L259.8,253.3z
	 M253.7,256.8c-6.1,1-10.1,4.4-9.1,6.8c0.6,0.3,0.8,0.5,3.5-0.5c4-1.5,8.4-2,12.6-1.3c2,0.3,2.9,0.3,3.3-0.3
	C265.1,259.9,260.2,256,253.7,256.8L253.7,256.8z M290.2,268.3c2.3-4.6-7.3-9.4-9.6-4.7C278.3,268.3,287.9,273,290.2,268.3
	L290.2,268.3z M300.8,254.5c-5.2-0.1-5.3,10.7-0.2,10.8C305.8,265.4,306.1,254.6,300.8,254.5L300.8,254.5z M153.2,307.7
	c-0.9,0.2-4,1-5.7-1.6c-3.5-5.4,7.5-13.7,2-24.1c-6.1-11.8-18.8-9.1-23.6-3.8c-5.9,6.5-5.9,15.9-3.4,16.3c2.9,0.3,2.7-4.4,5-7.9
	c2.6-4,8-5.2,12-2.5c0,0,0.1,0,0.1,0.1c7.8,5.2,1,12,1.6,19.3c1,11.3,12.4,11,14.5,6c0.3-0.5,0.3-1.1-0.2-1.6
	C155.5,308.6,155.9,307.1,153.2,307.7L153.2,307.7z M355.4,296.2c-2.3-7.9-1.7-6.2-4.5-13.8c1.7-2.4,10.3-16.2-2.1-29.2
	c-7-7.3-22.8-11.2-27.7-12.5c-1-7.7,3.1-39.6-14.5-56c14-14.5,22.7-30.5,22.7-44.3c0-26.4-32.5-34.4-72.4-17.8l-8.5,3.6
	c0,0-15.3-15-15.6-15.2C187.3,71.1,44.7,229.6,90.2,268.1l10,8.4c-2.7,7.2-3.7,15-2.8,22.6c2.3,22.6,24.3,40.8,45.6,40.8
	c39,89.8,180.7,89.9,217.5,2c1.1-3,6.1-16.6,6.1-28.6S359.8,296.2,355.4,296.2L355.4,296.2z M142.2,328.7
	c-15.4-0.4-32-14.3-33.7-30.7c-4.2-41.4,50.1-50.7,56.7-8.3C168.3,309.6,162.1,329.1,142.2,328.7L142.2,328.7z M129.8,251.6
	c-10.2,2-19.2,7.8-24.8,15.8c-3.3-2.7-9.4-8.1-10.5-10.1c-8.7-16.8,9.6-49.3,22.5-67.6c31.8-45.3,81.5-79.7,104.6-73.5
	c3.8,1,16.2,15.5,16.2,15.5s-23,12.8-44.4,30.6C164.5,184.5,142.8,216.7,129.8,251.6L129.8,251.6z M290.9,319.9
	c0,0-24.1,3.6-46.9-4.8c4.2-13.6,18.2,4.1,65-9.3c10.3-3,23.9-8.7,34.4-17.1c2.3,5.2,3.8,10.8,4.8,16.4c2.4-0.4,9.6-0.3,7.7,12.2
	c-2.2,13.4-7.9,24.3-17.5,34.3c-5.9,6.5-13.1,11.8-21,15.7c-4.4,2.3-9,4.3-13.7,5.8c-36.1,11.8-73.1-1.1-85-29
	c-1-2.1-1.7-4.3-2.4-6.6c-5.1-18.4-0.8-40.3,12.7-54.2c0.8-0.9,1.7-1.9,1.7-3.2c-0.1-1.1-0.6-2.2-1.3-3.1
	c-4.7-6.8-21.1-18.5-17.8-41c2.4-16.2,16.5-27.6,29.7-26.9l3.4,0.2c5.7,0.3,10.8,1,15.4,1.2c7.9,0.3,15-0.8,23.4-7.8
	c2.8-2.4,5.1-4.4,8.9-5.1c3.1-0.8,6.5-0.3,9.2,1.5c6.7,4.5,7.7,15.3,8,23.3c0.2,4.5,0.7,15.5,1,18.6c0.4,7.2,2.3,8.2,6.1,9.4
	c2.2,0.7,4.1,1.2,7.1,2.1c8.9,2.5,14.2,5.1,17.6,8.3c1.7,1.7,2.8,3.8,3.2,6.3c1,7.7-5.9,17.1-24.5,25.7
	c-31.5,14.6-63.2,9.7-67.8,9.2c-13.6-1.8-21.3,15.7-13.2,27.7c15.3,22.6,82.6,13.5,102.1-14.4c0.4-0.7,0.1-1-0.5-0.7
	c-28.2,19.2-65.4,25.8-86.7,17.6c-3.2-1.2-10-4.4-10.8-11.3c29.4,9.1,47.9,0.5,47.9,0.5S292.7,319.7,290.9,319.9L290.9,319.9z
	 M188.5,189.5c11.3-13,25.2-24.4,37.7-30.8c0.3-0.2,0.5-0.1,0.7,0.2c0.1,0.2,0.1,0.3,0,0.5c-1,1.8-2.9,5.6-3.5,8.6
	c-0.1,0.3,0.1,0.5,0.3,0.6c0.2,0,0.3,0,0.4-0.1c7.8-5.2,21.3-10.9,33.1-11.6c0.3,0,0.5,0.2,0.5,0.5c0,0.2-0.1,0.3-0.2,0.4
	c-1.9,1.5-3.7,3.2-5.2,5.2c-0.2,0.3-0.1,0.5,0.1,0.7c0.1,0.1,0.2,0.1,0.3,0.1c8.3,0.1,20,3,27.6,7.3c0.5,0.3,0.2,1.3-0.4,1.1
	c-46.9-10.8-83,12.5-90.7,18.1c-0.3,0.2-0.5,0.1-0.7-0.2C188.3,190,188.4,189.7,188.5,189.5L188.5,189.5z"/>
</svg>
